<svg xmlns="http://www.w3.org/2000/svg" width="256" height="256" viewBox="0 0 100 100"><rect width="100" height="100" rx="50" fill="#4a90e2"></rect><path fill="#fff" d="M16.34 50.56L12.70 50.56L12.70 58.30Q12.49 58.37 12.13 58.46Q11.77 58.55 11.34 58.55L11.34 58.55Q9.75 58.55 9.75 57.22L9.75 57.22L9.75 38.07Q9.75 37.49 10.04 37.18Q10.33 36.88 10.94 36.70L10.94 36.70Q11.98 36.37 13.48 36.23Q14.97 36.09 16.38 36.09L16.38 36.09Q20.95 36.09 23.05 38.01Q25.16 39.94 25.16 43.21L25.16 43.21Q25.16 46.56 23.00 48.56Q20.84 50.56 16.34 50.56L16.34 50.56ZM12.67 48.11L16.16 48.11Q19.04 48.11 20.62 46.92Q22.21 45.73 22.21 43.25L22.21 43.25Q22.21 40.80 20.68 39.67Q19.15 38.53 16.30 38.53L16.30 38.53Q15.33 38.53 14.38 38.62Q13.42 38.71 12.67 38.86L12.67 38.86L12.67 48.11ZM42.80 50.20L31.71 51.75Q32.68 56.46 37.90 56.46L37.90 56.46Q39.42 56.46 40.64 55.96Q41.86 55.45 42.58 54.88L42.58 54.88Q43.45 55.38 43.45 56.25L43.45 56.25Q43.45 56.75 43.00 57.22Q42.55 57.69 41.77 58.05Q41.00 58.41 39.97 58.62Q38.95 58.84 37.76 58.84L37.76 58.84Q33.58 58.84 31.15 56.57Q28.72 54.30 28.72 49.95L28.72 49.95Q28.72 47.89 29.32 46.29Q29.91 44.69 30.97 43.57Q32.04 42.46 33.51 41.86Q34.99 41.27 36.72 41.27L36.72 41.27Q38.34 41.27 39.70 41.81Q41.07 42.35 42.06 43.34Q43.05 44.33 43.61 45.68Q44.17 47.03 44.17 48.65L44.17 48.65Q44.17 49.44 43.81 49.78Q43.45 50.13 42.80 50.20L42.80 50.20ZM36.68 43.61L36.68 43.61Q34.48 43.61 33.04 45.14Q31.60 46.67 31.53 49.51L31.53 49.51L41.43 48.15Q41.25 46.17 40.05 44.89Q38.84 43.61 36.68 43.61ZM51.73 54.66L51.73 54.66Q51.26 53.80 50.65 52.47Q50.04 51.13 49.37 49.48Q48.70 47.82 48.02 45.97Q47.34 44.11 46.72 42.21L46.72 42.21Q46.98 41.85 47.39 41.63Q47.80 41.41 48.27 41.41L48.27 41.41Q48.88 41.41 49.26 41.74Q49.64 42.06 49.93 42.82L49.93 42.82Q51.01 45.88 52.18 48.83Q53.35 51.78 54.82 55.02L54.82 55.02L54.97 55.02Q55.54 53.91 56.16 52.30Q56.77 50.70 57.36 48.90Q57.96 47.10 58.48 45.25Q59.00 43.39 59.40 41.70L59.40 41.70Q59.65 41.59 59.94 41.50Q60.22 41.41 60.62 41.41L60.62 41.41Q61.23 41.41 61.63 41.72Q62.02 42.03 62.02 42.64L62.02 42.64Q62.02 43.36 61.52 45.27Q61.02 47.17 60.21 49.55Q59.40 51.93 58.35 54.43Q57.31 56.93 56.23 58.87L56.23 58.87Q54.54 61.93 53.19 63.57Q51.84 65.21 50.68 65.21L50.68 65.21Q49.86 65.21 49.41 64.78Q48.96 64.35 48.85 63.77L48.85 63.77Q49.42 63.27 50.14 62.47Q50.86 61.68 51.58 60.76Q52.30 59.85 52.95 58.87Q53.60 57.90 54.03 57.00L54.03 57.00Q53.42 56.82 52.90 56.37Q52.38 55.92 51.73 54.66ZM69.12 58.30L69.12 58.30Q68.94 58.37 68.58 58.46Q68.22 58.55 67.78 58.55L67.78 58.55Q66.24 58.55 66.24 57.25L66.24 57.25L66.24 35.04Q66.42 34.97 66.79 34.88Q67.17 34.79 67.57 34.79L67.57 34.79Q69.12 34.79 69.12 36.09L69.12 36.09L69.12 58.30ZM90.25 50.05L90.25 50.05Q90.25 52.07 89.67 53.69Q89.10 55.31 88.03 56.46Q86.97 57.61 85.46 58.23Q83.95 58.84 82.08 58.84L82.08 58.84Q80.20 58.84 78.69 58.23Q77.18 57.61 76.10 56.46Q75.02 55.31 74.44 53.69Q73.87 52.07 73.87 50.05L73.87 50.05Q73.87 48.04 74.46 46.42Q75.06 44.80 76.14 43.65Q77.22 42.49 78.73 41.88Q80.24 41.27 82.08 41.27L82.08 41.27Q83.91 41.27 85.42 41.88Q86.94 42.49 88.00 43.65Q89.06 44.80 89.65 46.42Q90.25 48.04 90.25 50.05ZM82.08 43.65L82.08 43.65Q79.63 43.65 78.22 45.34Q76.82 47.03 76.82 50.05L76.82 50.05Q76.82 53.11 78.21 54.79Q79.59 56.46 82.08 56.46L82.08 56.46Q84.56 56.46 85.93 54.77Q87.30 53.08 87.30 50.05L87.30 50.05Q87.30 47.03 85.91 45.34Q84.52 43.65 82.08 43.65Z"></path></svg>